<svg xmlns="http://www.w3.org/2000/svg" width="1260" height="800" viewBox="0 0 1260 800">
<rect width="100%" height="100%" fill="#f3efe7"/>
<rect x="30" y="28" width="1200" height="744" rx="28" fill="#fffdf9" stroke="#ddd4c6"/>
<text x="72" y="88" font-family="Segoe UI, Arial, sans-serif" font-size="31" font-weight="700" fill="#17202a">ATM put: Direct relative error</text>
<text x="72" y="118" font-family="Segoe UI, Arial, sans-serif" font-size="15" fill="#475569">Reference taken from bgk_gdmr_comparison.md; varying-path experiment curves use Euler 100 in the unchanged Final Code scripts.</text>
<text x="72" y="146" font-family="Segoe UI, Arial, sans-serif" font-size="14" fill="#64748b">BGK setup with S0 = 100, K = 100, exercise dates = 100, path axis shown on log scale.</text>
<text x="72" y="174" font-family="Segoe UI, Arial, sans-serif" font-size="14" fill="#64748b">Relative errors are measured against the fixed ATM put benchmark direct reference value from the BGK note. Point estimates only.</text>
<line x1="115" y1="250" x2="115" y2="620" stroke="#334155" stroke-width="1.6"/>
<line x1="115" y1="620" x2="1150" y2="620" stroke="#334155" stroke-width="1.6"/>
<line x1="115" y1="620.00" x2="1150" y2="620.00" stroke="#ece5d8" stroke-width="1"/>
<text x="103" y="625.00" text-anchor="end" font-family="Segoe UI, Arial, sans-serif" font-size="12" fill="#64748b">0.00%</text>
<line x1="115" y1="546.00" x2="1150" y2="546.00" stroke="#ece5d8" stroke-width="1"/>
<text x="103" y="551.00" text-anchor="end" font-family="Segoe UI, Arial, sans-serif" font-size="12" fill="#64748b">17.36%</text>
<line x1="115" y1="472.00" x2="1150" y2="472.00" stroke="#ece5d8" stroke-width="1"/>
<text x="103" y="477.00" text-anchor="end" font-family="Segoe UI, Arial, sans-serif" font-size="12" fill="#64748b">34.72%</text>
<line x1="115" y1="398.00" x2="1150" y2="398.00" stroke="#ece5d8" stroke-width="1"/>
<text x="103" y="403.00" text-anchor="end" font-family="Segoe UI, Arial, sans-serif" font-size="12" fill="#64748b">52.09%</text>
<line x1="115" y1="324.00" x2="1150" y2="324.00" stroke="#ece5d8" stroke-width="1"/>
<text x="103" y="329.00" text-anchor="end" font-family="Segoe UI, Arial, sans-serif" font-size="12" fill="#64748b">69.45%</text>
<line x1="115" y1="250.00" x2="1150" y2="250.00" stroke="#ece5d8" stroke-width="1"/>
<text x="103" y="255.00" text-anchor="end" font-family="Segoe UI, Arial, sans-serif" font-size="12" fill="#64748b">86.81%</text>
<line x1="115.00" y1="250" x2="115.00" y2="620" stroke="#f3eee4" stroke-width="1"/>
<text x="115.00" y="644" text-anchor="end" transform="rotate(-35 115.00 644)" font-family="Segoe UI, Arial, sans-serif" font-size="11" fill="#64748b">50</text>
<line x1="334.15" y1="250" x2="334.15" y2="620" stroke="#f3eee4" stroke-width="1"/>
<text x="334.15" y="644" text-anchor="end" transform="rotate(-35 334.15 644)" font-family="Segoe UI, Arial, sans-serif" font-size="11" fill="#64748b">250</text>
<line x1="428.54" y1="250" x2="428.54" y2="620" stroke="#f3eee4" stroke-width="1"/>
<text x="428.54" y="644" text-anchor="end" transform="rotate(-35 428.54 644)" font-family="Segoe UI, Arial, sans-serif" font-size="11" fill="#64748b">500</text>
<line x1="522.92" y1="250" x2="522.92" y2="620" stroke="#f3eee4" stroke-width="1"/>
<text x="522.92" y="644" text-anchor="end" transform="rotate(-35 522.92 644)" font-family="Segoe UI, Arial, sans-serif" font-size="11" fill="#64748b">1,000</text>
<line x1="742.08" y1="250" x2="742.08" y2="620" stroke="#f3eee4" stroke-width="1"/>
<text x="742.08" y="644" text-anchor="end" transform="rotate(-35 742.08 644)" font-family="Segoe UI, Arial, sans-serif" font-size="11" fill="#64748b">5,000</text>
<line x1="836.46" y1="250" x2="836.46" y2="620" stroke="#f3eee4" stroke-width="1"/>
<text x="836.46" y="644" text-anchor="end" transform="rotate(-35 836.46 644)" font-family="Segoe UI, Arial, sans-serif" font-size="11" fill="#64748b">10,000</text>
<line x1="930.85" y1="250" x2="930.85" y2="620" stroke="#f3eee4" stroke-width="1"/>
<text x="930.85" y="644" text-anchor="end" transform="rotate(-35 930.85 644)" font-family="Segoe UI, Arial, sans-serif" font-size="11" fill="#64748b">20,000</text>
<line x1="1055.62" y1="250" x2="1055.62" y2="620" stroke="#f3eee4" stroke-width="1"/>
<text x="1055.62" y="644" text-anchor="end" transform="rotate(-35 1055.62 644)" font-family="Segoe UI, Arial, sans-serif" font-size="11" fill="#64748b">50,000</text>
<line x1="1119.61" y1="250" x2="1119.61" y2="620" stroke="#f3eee4" stroke-width="1"/>
<text x="1119.61" y="644" text-anchor="end" transform="rotate(-35 1119.61 644)" font-family="Segoe UI, Arial, sans-serif" font-size="11" fill="#64748b">80,000</text>
<line x1="1150.00" y1="250" x2="1150.00" y2="620" stroke="#f3eee4" stroke-width="1"/>
<text x="1150.00" y="644" text-anchor="end" transform="rotate(-35 1150.00 644)" font-family="Segoe UI, Arial, sans-serif" font-size="11" fill="#64748b">100,000</text>
<text x="37" y="435.00" transform="rotate(-90 37 435.00)" font-family="Segoe UI, Arial, sans-serif" font-size="13" fill="#475569">Relative error</text>
<text x="632.50" y="672" text-anchor="middle" font-family="Segoe UI, Arial, sans-serif" font-size="13" fill="#475569">Number of paths (log scale)</text>
<line x1="72" y1="210" x2="106" y2="210" stroke="#1d4ed8" stroke-width="4"/>
<circle cx="89" cy="210" r="5.5" fill="#1d4ed8" stroke="#fffdf9" stroke-width="2"/>
<text x="118" y="215" font-family="Segoe UI, Arial, sans-serif" font-size="14" fill="#334155">LSMC benchmark</text>
<polyline fill="none" stroke="#1d4ed8" stroke-width="3.2" stroke-linecap="round" stroke-linejoin="round" points="115.00,298.26 334.15,524.35 428.54,541.14 522.92,585.33 742.08,594.77 836.46,602.92 930.85,611.92 1055.62,617.46 1119.61,619.45 1150.00,619.78"/>
<circle cx="115.00" cy="298.26" r="5.8" fill="#1d4ed8" stroke="#fffdf9" stroke-width="2"/>
<circle cx="334.15" cy="524.35" r="5.8" fill="#1d4ed8" stroke="#fffdf9" stroke-width="2"/>
<circle cx="428.54" cy="541.14" r="5.8" fill="#1d4ed8" stroke="#fffdf9" stroke-width="2"/>
<circle cx="522.92" cy="585.33" r="5.8" fill="#1d4ed8" stroke="#fffdf9" stroke-width="2"/>
<circle cx="742.08" cy="594.77" r="5.8" fill="#1d4ed8" stroke="#fffdf9" stroke-width="2"/>
<circle cx="836.46" cy="602.92" r="5.8" fill="#1d4ed8" stroke="#fffdf9" stroke-width="2"/>
<circle cx="930.85" cy="611.92" r="5.8" fill="#1d4ed8" stroke="#fffdf9" stroke-width="2"/>
<circle cx="1055.62" cy="617.46" r="5.8" fill="#1d4ed8" stroke="#fffdf9" stroke-width="2"/>
<circle cx="1119.61" cy="619.45" r="5.8" fill="#1d4ed8" stroke="#fffdf9" stroke-width="2"/>
<circle cx="1150.00" cy="619.78" r="5.8" fill="#1d4ed8" stroke="#fffdf9" stroke-width="2"/>
<line x1="422" y1="210" x2="456" y2="210" stroke="#d97706" stroke-width="4"/>
<circle cx="439" cy="210" r="5.5" fill="#d97706" stroke="#fffdf9" stroke-width="2"/>
<text x="468" y="215" font-family="Segoe UI, Arial, sans-serif" font-size="14" fill="#334155">Hybrid LSMC-PDE with FFT</text>
<polyline fill="none" stroke="#d97706" stroke-width="3.2" stroke-linecap="round" stroke-linejoin="round" points="115.00,472.29 334.15,568.99 428.54,619.16 522.92,616.95 742.08,618.23 836.46,619.57 930.85,619.02 1055.62,619.18 1119.61,616.49 1150.00,615.01"/>
<circle cx="115.00" cy="472.29" r="5.8" fill="#d97706" stroke="#fffdf9" stroke-width="2"/>
<circle cx="334.15" cy="568.99" r="5.8" fill="#d97706" stroke="#fffdf9" stroke-width="2"/>
<circle cx="428.54" cy="619.16" r="5.8" fill="#d97706" stroke="#fffdf9" stroke-width="2"/>
<circle cx="522.92" cy="616.95" r="5.8" fill="#d97706" stroke="#fffdf9" stroke-width="2"/>
<circle cx="742.08" cy="618.23" r="5.8" fill="#d97706" stroke="#fffdf9" stroke-width="2"/>
<circle cx="836.46" cy="619.57" r="5.8" fill="#d97706" stroke="#fffdf9" stroke-width="2"/>
<circle cx="930.85" cy="619.02" r="5.8" fill="#d97706" stroke="#fffdf9" stroke-width="2"/>
<circle cx="1055.62" cy="619.18" r="5.8" fill="#d97706" stroke="#fffdf9" stroke-width="2"/>
<circle cx="1119.61" cy="616.49" r="5.8" fill="#d97706" stroke="#fffdf9" stroke-width="2"/>
<circle cx="1150.00" cy="615.01" r="5.8" fill="#d97706" stroke="#fffdf9" stroke-width="2"/>
</svg>