<svg xmlns="http://www.w3.org/2000/svg" width="1280" height="1360" viewBox="0 0 1280 1360">
<rect width="100%" height="100%" fill="#f4f1ea"/>
<rect x="24" y="24" width="1232" height="1312" rx="26" fill="#fffdf8" stroke="#ddd5c7"/>
<text x="72" y="86" font-family="Segoe UI, Arial, sans-serif" font-size="31" font-weight="700" fill="#17202a">Low relative error vs number of paths</text>
<text x="72" y="118" font-family="Segoe UI, Arial, sans-serif" font-size="16" fill="#475569">Reference: scenario-specific 1,000,000-path LSMC low. Point estimates with pointwise 95% CI error bars.</text>
<text x="72" y="145" font-family="Segoe UI, Arial, sans-serif" font-size="14" fill="#64748b">Scenarios: ITM K=110, ATM K=100, OTM K=90. Path sweep up to 20,000 for both methods.</text>
<line x1="72" y1="168" x2="106" y2="168" stroke="#1d4ed8" stroke-width="4"/>
<circle cx="89" cy="168" r="5.5" fill="#1d4ed8" stroke="#fffdf8" stroke-width="2"/>
<text x="120" y="173" font-family="Segoe UI, Arial, sans-serif" font-size="14" fill="#334155">LSMC benchmark</text>
<line x1="352" y1="168" x2="386" y2="168" stroke="#d97706" stroke-width="4"/>
<circle cx="369" cy="168" r="5.5" fill="#d97706" stroke="#fffdf8" stroke-width="2"/>
<text x="400" y="173" font-family="Segoe UI, Arial, sans-serif" font-size="14" fill="#334155">Hybrid LSMC-PDE with FFT</text>
<rect x="86" y="164" width="1116" height="352" rx="18" fill="#fffaf0" stroke="#e8dece"/>
<text x="108" y="184" font-family="Segoe UI, Arial, sans-serif" font-size="20" font-weight="700" fill="#17202a">ATM put  (K = 100)</text>
<text x="438" y="184" font-family="Segoe UI, Arial, sans-serif" font-size="13" fill="#64748b">Reference price = 6.147378</text>
<line x1="108" y1="190" x2="108" y2="490" stroke="#334155" stroke-width="1.5"/>
<line x1="108" y1="490" x2="1180" y2="490" stroke="#334155" stroke-width="1.5"/>
<line x1="108" y1="490.00" x2="1180" y2="490.00" stroke="#ebe5d9" stroke-width="1"/>
<text x="96" y="494.00" text-anchor="end" font-family="Segoe UI, Arial, sans-serif" font-size="12" fill="#64748b">0.00%</text>
<line x1="108" y1="430.00" x2="1180" y2="430.00" stroke="#ebe5d9" stroke-width="1"/>
<text x="96" y="434.00" text-anchor="end" font-family="Segoe UI, Arial, sans-serif" font-size="12" fill="#64748b">8.75%</text>
<line x1="108" y1="370.00" x2="1180" y2="370.00" stroke="#ebe5d9" stroke-width="1"/>
<text x="96" y="374.00" text-anchor="end" font-family="Segoe UI, Arial, sans-serif" font-size="12" fill="#64748b">17.51%</text>
<line x1="108" y1="310.00" x2="1180" y2="310.00" stroke="#ebe5d9" stroke-width="1"/>
<text x="96" y="314.00" text-anchor="end" font-family="Segoe UI, Arial, sans-serif" font-size="12" fill="#64748b">26.26%</text>
<line x1="108" y1="250.00" x2="1180" y2="250.00" stroke="#ebe5d9" stroke-width="1"/>
<text x="96" y="254.00" text-anchor="end" font-family="Segoe UI, Arial, sans-serif" font-size="12" fill="#64748b">35.02%</text>
<line x1="108" y1="190.00" x2="1180" y2="190.00" stroke="#ebe5d9" stroke-width="1"/>
<text x="96" y="194.00" text-anchor="end" font-family="Segoe UI, Arial, sans-serif" font-size="12" fill="#64748b">43.77%</text>
<line x1="108.00" y1="190" x2="108.00" y2="490" stroke="#f1ece3" stroke-width="1"/>
<text x="108.00" y="512" text-anchor="middle" font-family="Segoe UI, Arial, sans-serif" font-size="12" fill="#64748b">0</text>
<line x1="10828.00" y1="190" x2="10828.00" y2="490" stroke="#f1ece3" stroke-width="1"/>
<text x="10828.00" y="512" text-anchor="middle" font-family="Segoe UI, Arial, sans-serif" font-size="12" fill="#64748b">5,000</text>
<line x1="21548.00" y1="190" x2="21548.00" y2="490" stroke="#f1ece3" stroke-width="1"/>
<text x="21548.00" y="512" text-anchor="middle" font-family="Segoe UI, Arial, sans-serif" font-size="12" fill="#64748b">10,000</text>
<line x1="32268.00" y1="190" x2="32268.00" y2="490" stroke="#f1ece3" stroke-width="1"/>
<text x="32268.00" y="512" text-anchor="middle" font-family="Segoe UI, Arial, sans-serif" font-size="12" fill="#64748b">15,000</text>
<line x1="42988.00" y1="190" x2="42988.00" y2="490" stroke="#f1ece3" stroke-width="1"/>
<text x="42988.00" y="512" text-anchor="middle" font-family="Segoe UI, Arial, sans-serif" font-size="12" fill="#64748b">20,000</text>
<text x="36" y="340.00" transform="rotate(-90 36 340.00)" font-family="Segoe UI, Arial, sans-serif" font-size="13" fill="#475569">Relative error</text>
<text x="644.00" y="538" text-anchor="middle" font-family="Segoe UI, Arial, sans-serif" font-size="13" fill="#475569">Number of paths</text>
<polyline fill="none" stroke="#1d4ed8" stroke-width="3" stroke-linecap="round" stroke-linejoin="round" points="644.00,324.65 1180.00,458.70"/>
<line x1="644.00" y1="229.13" x2="644.00" y2="420.17" stroke="#1d4ed8" stroke-width="2.2" opacity="0.8"/>
<line x1="637.00" y1="229.13" x2="651.00" y2="229.13" stroke="#1d4ed8" stroke-width="2.2" opacity="0.8"/>
<line x1="637.00" y1="420.17" x2="651.00" y2="420.17" stroke="#1d4ed8" stroke-width="2.2" opacity="0.8"/>
<circle cx="644.00" cy="324.65" r="5.4" fill="#1d4ed8" stroke="#fffdf8" stroke-width="2"/>
<line x1="1180.00" y1="445.24" x2="1180.00" y2="490.00" stroke="#1d4ed8" stroke-width="2.2" opacity="0.8"/>
<line x1="1173.00" y1="445.24" x2="1187.00" y2="445.24" stroke="#1d4ed8" stroke-width="2.2" opacity="0.8"/>
<line x1="1173.00" y1="490.00" x2="1187.00" y2="490.00" stroke="#1d4ed8" stroke-width="2.2" opacity="0.8"/>
<circle cx="1180.00" cy="458.70" r="5.4" fill="#1d4ed8" stroke="#fffdf8" stroke-width="2"/>
<polyline fill="none" stroke="#d97706" stroke-width="3" stroke-linecap="round" stroke-linejoin="round" points="644.00,478.65 1180.00,478.07"/>
<line x1="644.00" y1="466.34" x2="644.00" y2="490.00" stroke="#d97706" stroke-width="2.2" opacity="0.8"/>
<line x1="637.00" y1="466.34" x2="651.00" y2="466.34" stroke="#d97706" stroke-width="2.2" opacity="0.8"/>
<line x1="637.00" y1="490.00" x2="651.00" y2="490.00" stroke="#d97706" stroke-width="2.2" opacity="0.8"/>
<circle cx="644.00" cy="478.65" r="5.4" fill="#d97706" stroke="#fffdf8" stroke-width="2"/>
<line x1="1180.00" y1="468.95" x2="1180.00" y2="487.20" stroke="#d97706" stroke-width="2.2" opacity="0.8"/>
<line x1="1173.00" y1="468.95" x2="1187.00" y2="468.95" stroke="#d97706" stroke-width="2.2" opacity="0.8"/>
<line x1="1173.00" y1="487.20" x2="1187.00" y2="487.20" stroke="#d97706" stroke-width="2.2" opacity="0.8"/>
<circle cx="1180.00" cy="478.07" r="5.4" fill="#d97706" stroke="#fffdf8" stroke-width="2"/>
</svg>