<svg xmlns="http://www.w3.org/2000/svg" width="1280" height="1360" viewBox="0 0 1280 1360">
<rect width="100%" height="100%" fill="#f4f1ea"/>
<rect x="24" y="24" width="1232" height="1312" rx="26" fill="#fffdf8" stroke="#ddd5c7"/>
<text x="72" y="86" font-family="Segoe UI, Arial, sans-serif" font-size="31" font-weight="700" fill="#17202a">Low relative error vs number of paths</text>
<text x="72" y="118" font-family="Segoe UI, Arial, sans-serif" font-size="16" fill="#475569">Reference: scenario-specific 1,000,000-path LSMC low. Point estimates only.</text>
<text x="72" y="145" font-family="Segoe UI, Arial, sans-serif" font-size="14" fill="#64748b">Scenarios: ITM K=110, ATM K=100, OTM K=90. Path sweep up to 20,000 for both methods.</text>
<line x1="72" y1="168" x2="106" y2="168" stroke="#1d4ed8" stroke-width="4"/>
<circle cx="89" cy="168" r="5.5" fill="#1d4ed8" stroke="#fffdf8" stroke-width="2"/>
<text x="120" y="173" font-family="Segoe UI, Arial, sans-serif" font-size="14" fill="#334155">LSMC benchmark</text>
<line x1="352" y1="168" x2="386" y2="168" stroke="#d97706" stroke-width="4"/>
<circle cx="369" cy="168" r="5.5" fill="#d97706" stroke="#fffdf8" stroke-width="2"/>
<text x="400" y="173" font-family="Segoe UI, Arial, sans-serif" font-size="14" fill="#334155">Hybrid LSMC-PDE with FFT</text>
<rect x="86" y="164" width="1116" height="352" rx="18" fill="#fffaf0" stroke="#e8dece"/>
<text x="108" y="184" font-family="Segoe UI, Arial, sans-serif" font-size="20" font-weight="700" fill="#17202a">ITM put  (K = 110)</text>
<text x="438" y="184" font-family="Segoe UI, Arial, sans-serif" font-size="13" fill="#64748b">Reference price = 12.572779</text>
<line x1="108" y1="190" x2="108" y2="490" stroke="#334155" stroke-width="1.5"/>
<line x1="108" y1="490" x2="1180" y2="490" stroke="#334155" stroke-width="1.5"/>
<line x1="108" y1="490.00" x2="1180" y2="490.00" stroke="#ebe5d9" stroke-width="1"/>
<text x="96" y="494.00" text-anchor="end" font-family="Segoe UI, Arial, sans-serif" font-size="12" fill="#64748b">0.00%</text>
<line x1="108" y1="430.00" x2="1180" y2="430.00" stroke="#ebe5d9" stroke-width="1"/>
<text x="96" y="434.00" text-anchor="end" font-family="Segoe UI, Arial, sans-serif" font-size="12" fill="#64748b">8.54%</text>
<line x1="108" y1="370.00" x2="1180" y2="370.00" stroke="#ebe5d9" stroke-width="1"/>
<text x="96" y="374.00" text-anchor="end" font-family="Segoe UI, Arial, sans-serif" font-size="12" fill="#64748b">17.08%</text>
<line x1="108" y1="310.00" x2="1180" y2="310.00" stroke="#ebe5d9" stroke-width="1"/>
<text x="96" y="314.00" text-anchor="end" font-family="Segoe UI, Arial, sans-serif" font-size="12" fill="#64748b">25.62%</text>
<line x1="108" y1="250.00" x2="1180" y2="250.00" stroke="#ebe5d9" stroke-width="1"/>
<text x="96" y="254.00" text-anchor="end" font-family="Segoe UI, Arial, sans-serif" font-size="12" fill="#64748b">34.16%</text>
<line x1="108" y1="190.00" x2="1180" y2="190.00" stroke="#ebe5d9" stroke-width="1"/>
<text x="96" y="194.00" text-anchor="end" font-family="Segoe UI, Arial, sans-serif" font-size="12" fill="#64748b">42.70%</text>
<line x1="108.00" y1="190" x2="108.00" y2="490" stroke="#f1ece3" stroke-width="1"/>
<text x="108.00" y="512" text-anchor="middle" font-family="Segoe UI, Arial, sans-serif" font-size="12" fill="#64748b">0</text>
<line x1="376.00" y1="190" x2="376.00" y2="490" stroke="#f1ece3" stroke-width="1"/>
<text x="376.00" y="512" text-anchor="middle" font-family="Segoe UI, Arial, sans-serif" font-size="12" fill="#64748b">5,000</text>
<line x1="644.00" y1="190" x2="644.00" y2="490" stroke="#f1ece3" stroke-width="1"/>
<text x="644.00" y="512" text-anchor="middle" font-family="Segoe UI, Arial, sans-serif" font-size="12" fill="#64748b">10,000</text>
<line x1="912.00" y1="190" x2="912.00" y2="490" stroke="#f1ece3" stroke-width="1"/>
<text x="912.00" y="512" text-anchor="middle" font-family="Segoe UI, Arial, sans-serif" font-size="12" fill="#64748b">15,000</text>
<line x1="1180.00" y1="190" x2="1180.00" y2="490" stroke="#f1ece3" stroke-width="1"/>
<text x="1180.00" y="512" text-anchor="middle" font-family="Segoe UI, Arial, sans-serif" font-size="12" fill="#64748b">20,000</text>
<text x="36" y="340.00" transform="rotate(-90 36 340.00)" font-family="Segoe UI, Arial, sans-serif" font-size="13" fill="#475569">Relative error</text>
<text x="644.00" y="538" text-anchor="middle" font-family="Segoe UI, Arial, sans-serif" font-size="13" fill="#475569">Number of paths</text>
<polyline fill="none" stroke="#1d4ed8" stroke-width="3" stroke-linecap="round" stroke-linejoin="round" points="121.40,375.59 134.80,453.34 161.60,472.86 215.20,483.51 268.80,489.65 376.00,481.60 536.80,486.57 751.20,487.99 965.60,487.52 1180.00,487.02"/>
<circle cx="121.40" cy="375.59" r="5.4" fill="#1d4ed8" stroke="#fffdf8" stroke-width="2"/>
<circle cx="134.80" cy="453.34" r="5.4" fill="#1d4ed8" stroke="#fffdf8" stroke-width="2"/>
<circle cx="161.60" cy="472.86" r="5.4" fill="#1d4ed8" stroke="#fffdf8" stroke-width="2"/>
<circle cx="215.20" cy="483.51" r="5.4" fill="#1d4ed8" stroke="#fffdf8" stroke-width="2"/>
<circle cx="268.80" cy="489.65" r="5.4" fill="#1d4ed8" stroke="#fffdf8" stroke-width="2"/>
<circle cx="376.00" cy="481.60" r="5.4" fill="#1d4ed8" stroke="#fffdf8" stroke-width="2"/>
<circle cx="536.80" cy="486.57" r="5.4" fill="#1d4ed8" stroke="#fffdf8" stroke-width="2"/>
<circle cx="751.20" cy="487.99" r="5.4" fill="#1d4ed8" stroke="#fffdf8" stroke-width="2"/>
<circle cx="965.60" cy="487.52" r="5.4" fill="#1d4ed8" stroke="#fffdf8" stroke-width="2"/>
<circle cx="1180.00" cy="487.02" r="5.4" fill="#1d4ed8" stroke="#fffdf8" stroke-width="2"/>
<polyline fill="none" stroke="#d97706" stroke-width="3" stroke-linecap="round" stroke-linejoin="round" points="121.40,487.39 134.80,487.60 161.60,486.30 215.20,486.32 268.80,485.88 376.00,487.34 536.80,487.73 751.20,486.75 965.60,488.21 1180.00,487.54"/>
<circle cx="121.40" cy="487.39" r="5.4" fill="#d97706" stroke="#fffdf8" stroke-width="2"/>
<circle cx="134.80" cy="487.60" r="5.4" fill="#d97706" stroke="#fffdf8" stroke-width="2"/>
<circle cx="161.60" cy="486.30" r="5.4" fill="#d97706" stroke="#fffdf8" stroke-width="2"/>
<circle cx="215.20" cy="486.32" r="5.4" fill="#d97706" stroke="#fffdf8" stroke-width="2"/>
<circle cx="268.80" cy="485.88" r="5.4" fill="#d97706" stroke="#fffdf8" stroke-width="2"/>
<circle cx="376.00" cy="487.34" r="5.4" fill="#d97706" stroke="#fffdf8" stroke-width="2"/>
<circle cx="536.80" cy="487.73" r="5.4" fill="#d97706" stroke="#fffdf8" stroke-width="2"/>
<circle cx="751.20" cy="486.75" r="5.4" fill="#d97706" stroke="#fffdf8" stroke-width="2"/>
<circle cx="965.60" cy="488.21" r="5.4" fill="#d97706" stroke="#fffdf8" stroke-width="2"/>
<circle cx="1180.00" cy="487.54" r="5.4" fill="#d97706" stroke="#fffdf8" stroke-width="2"/>
<rect x="86" y="522" width="1116" height="352" rx="18" fill="#fffaf0" stroke="#e8dece"/>
<text x="108" y="542" font-family="Segoe UI, Arial, sans-serif" font-size="20" font-weight="700" fill="#17202a">ATM put  (K = 100)</text>
<text x="438" y="542" font-family="Segoe UI, Arial, sans-serif" font-size="13" fill="#64748b">Reference price = 6.309298</text>
<line x1="108" y1="548" x2="108" y2="848" stroke="#334155" stroke-width="1.5"/>
<line x1="108" y1="848" x2="1180" y2="848" stroke="#334155" stroke-width="1.5"/>
<line x1="108" y1="848.00" x2="1180" y2="848.00" stroke="#ebe5d9" stroke-width="1"/>
<text x="96" y="852.00" text-anchor="end" font-family="Segoe UI, Arial, sans-serif" font-size="12" fill="#64748b">0.00%</text>
<line x1="108" y1="788.00" x2="1180" y2="788.00" stroke="#ebe5d9" stroke-width="1"/>
<text x="96" y="792.00" text-anchor="end" font-family="Segoe UI, Arial, sans-serif" font-size="12" fill="#64748b">8.54%</text>
<line x1="108" y1="728.00" x2="1180" y2="728.00" stroke="#ebe5d9" stroke-width="1"/>
<text x="96" y="732.00" text-anchor="end" font-family="Segoe UI, Arial, sans-serif" font-size="12" fill="#64748b">17.08%</text>
<line x1="108" y1="668.00" x2="1180" y2="668.00" stroke="#ebe5d9" stroke-width="1"/>
<text x="96" y="672.00" text-anchor="end" font-family="Segoe UI, Arial, sans-serif" font-size="12" fill="#64748b">25.62%</text>
<line x1="108" y1="608.00" x2="1180" y2="608.00" stroke="#ebe5d9" stroke-width="1"/>
<text x="96" y="612.00" text-anchor="end" font-family="Segoe UI, Arial, sans-serif" font-size="12" fill="#64748b">34.16%</text>
<line x1="108" y1="548.00" x2="1180" y2="548.00" stroke="#ebe5d9" stroke-width="1"/>
<text x="96" y="552.00" text-anchor="end" font-family="Segoe UI, Arial, sans-serif" font-size="12" fill="#64748b">42.70%</text>
<line x1="108.00" y1="548" x2="108.00" y2="848" stroke="#f1ece3" stroke-width="1"/>
<text x="108.00" y="870" text-anchor="middle" font-family="Segoe UI, Arial, sans-serif" font-size="12" fill="#64748b">0</text>
<line x1="376.00" y1="548" x2="376.00" y2="848" stroke="#f1ece3" stroke-width="1"/>
<text x="376.00" y="870" text-anchor="middle" font-family="Segoe UI, Arial, sans-serif" font-size="12" fill="#64748b">5,000</text>
<line x1="644.00" y1="548" x2="644.00" y2="848" stroke="#f1ece3" stroke-width="1"/>
<text x="644.00" y="870" text-anchor="middle" font-family="Segoe UI, Arial, sans-serif" font-size="12" fill="#64748b">10,000</text>
<line x1="912.00" y1="548" x2="912.00" y2="848" stroke="#f1ece3" stroke-width="1"/>
<text x="912.00" y="870" text-anchor="middle" font-family="Segoe UI, Arial, sans-serif" font-size="12" fill="#64748b">15,000</text>
<line x1="1180.00" y1="548" x2="1180.00" y2="848" stroke="#f1ece3" stroke-width="1"/>
<text x="1180.00" y="870" text-anchor="middle" font-family="Segoe UI, Arial, sans-serif" font-size="12" fill="#64748b">20,000</text>
<text x="36" y="698.00" transform="rotate(-90 36 698.00)" font-family="Segoe UI, Arial, sans-serif" font-size="13" fill="#475569">Relative error</text>
<text x="644.00" y="896" text-anchor="middle" font-family="Segoe UI, Arial, sans-serif" font-size="13" fill="#475569">Number of paths</text>
<polyline fill="none" stroke="#1d4ed8" stroke-width="3" stroke-linecap="round" stroke-linejoin="round" points="121.40,664.83 134.80,798.71 161.60,808.00 215.20,829.97 268.80,847.36 376.00,840.14 536.80,839.94 751.20,846.81 965.60,846.13 1180.00,842.64"/>
<circle cx="121.40" cy="664.83" r="5.4" fill="#1d4ed8" stroke="#fffdf8" stroke-width="2"/>
<circle cx="134.80" cy="798.71" r="5.4" fill="#1d4ed8" stroke="#fffdf8" stroke-width="2"/>
<circle cx="161.60" cy="808.00" r="5.4" fill="#1d4ed8" stroke="#fffdf8" stroke-width="2"/>
<circle cx="215.20" cy="829.97" r="5.4" fill="#1d4ed8" stroke="#fffdf8" stroke-width="2"/>
<circle cx="268.80" cy="847.36" r="5.4" fill="#1d4ed8" stroke="#fffdf8" stroke-width="2"/>
<circle cx="376.00" cy="840.14" r="5.4" fill="#1d4ed8" stroke="#fffdf8" stroke-width="2"/>
<circle cx="536.80" cy="839.94" r="5.4" fill="#1d4ed8" stroke="#fffdf8" stroke-width="2"/>
<circle cx="751.20" cy="846.81" r="5.4" fill="#1d4ed8" stroke="#fffdf8" stroke-width="2"/>
<circle cx="965.60" cy="846.13" r="5.4" fill="#1d4ed8" stroke="#fffdf8" stroke-width="2"/>
<circle cx="1180.00" cy="842.64" r="5.4" fill="#1d4ed8" stroke="#fffdf8" stroke-width="2"/>
<polyline fill="none" stroke="#d97706" stroke-width="3" stroke-linecap="round" stroke-linejoin="round" points="121.40,841.31 134.80,841.88 161.60,841.04 215.20,841.34 268.80,841.27 376.00,843.90 536.80,844.71 751.20,842.57 965.60,845.03 1180.00,843.84"/>
<circle cx="121.40" cy="841.31" r="5.4" fill="#d97706" stroke="#fffdf8" stroke-width="2"/>
<circle cx="134.80" cy="841.88" r="5.4" fill="#d97706" stroke="#fffdf8" stroke-width="2"/>
<circle cx="161.60" cy="841.04" r="5.4" fill="#d97706" stroke="#fffdf8" stroke-width="2"/>
<circle cx="215.20" cy="841.34" r="5.4" fill="#d97706" stroke="#fffdf8" stroke-width="2"/>
<circle cx="268.80" cy="841.27" r="5.4" fill="#d97706" stroke="#fffdf8" stroke-width="2"/>
<circle cx="376.00" cy="843.90" r="5.4" fill="#d97706" stroke="#fffdf8" stroke-width="2"/>
<circle cx="536.80" cy="844.71" r="5.4" fill="#d97706" stroke="#fffdf8" stroke-width="2"/>
<circle cx="751.20" cy="842.57" r="5.4" fill="#d97706" stroke="#fffdf8" stroke-width="2"/>
<circle cx="965.60" cy="845.03" r="5.4" fill="#d97706" stroke="#fffdf8" stroke-width="2"/>
<circle cx="1180.00" cy="843.84" r="5.4" fill="#d97706" stroke="#fffdf8" stroke-width="2"/>
<rect x="86" y="880" width="1116" height="352" rx="18" fill="#fffaf0" stroke="#e8dece"/>
<text x="108" y="900" font-family="Segoe UI, Arial, sans-serif" font-size="20" font-weight="700" fill="#17202a">OTM put  (K = 90)</text>
<text x="438" y="900" font-family="Segoe UI, Arial, sans-serif" font-size="13" fill="#64748b">Reference price = 2.467968</text>
<line x1="108" y1="906" x2="108" y2="1206" stroke="#334155" stroke-width="1.5"/>
<line x1="108" y1="1206" x2="1180" y2="1206" stroke="#334155" stroke-width="1.5"/>
<line x1="108" y1="1206.00" x2="1180" y2="1206.00" stroke="#ebe5d9" stroke-width="1"/>
<text x="96" y="1210.00" text-anchor="end" font-family="Segoe UI, Arial, sans-serif" font-size="12" fill="#64748b">0.00%</text>
<line x1="108" y1="1146.00" x2="1180" y2="1146.00" stroke="#ebe5d9" stroke-width="1"/>
<text x="96" y="1150.00" text-anchor="end" font-family="Segoe UI, Arial, sans-serif" font-size="12" fill="#64748b">8.54%</text>
<line x1="108" y1="1086.00" x2="1180" y2="1086.00" stroke="#ebe5d9" stroke-width="1"/>
<text x="96" y="1090.00" text-anchor="end" font-family="Segoe UI, Arial, sans-serif" font-size="12" fill="#64748b">17.08%</text>
<line x1="108" y1="1026.00" x2="1180" y2="1026.00" stroke="#ebe5d9" stroke-width="1"/>
<text x="96" y="1030.00" text-anchor="end" font-family="Segoe UI, Arial, sans-serif" font-size="12" fill="#64748b">25.62%</text>
<line x1="108" y1="966.00" x2="1180" y2="966.00" stroke="#ebe5d9" stroke-width="1"/>
<text x="96" y="970.00" text-anchor="end" font-family="Segoe UI, Arial, sans-serif" font-size="12" fill="#64748b">34.16%</text>
<line x1="108" y1="906.00" x2="1180" y2="906.00" stroke="#ebe5d9" stroke-width="1"/>
<text x="96" y="910.00" text-anchor="end" font-family="Segoe UI, Arial, sans-serif" font-size="12" fill="#64748b">42.70%</text>
<line x1="108.00" y1="906" x2="108.00" y2="1206" stroke="#f1ece3" stroke-width="1"/>
<text x="108.00" y="1228" text-anchor="middle" font-family="Segoe UI, Arial, sans-serif" font-size="12" fill="#64748b">0</text>
<line x1="376.00" y1="906" x2="376.00" y2="1206" stroke="#f1ece3" stroke-width="1"/>
<text x="376.00" y="1228" text-anchor="middle" font-family="Segoe UI, Arial, sans-serif" font-size="12" fill="#64748b">5,000</text>
<line x1="644.00" y1="906" x2="644.00" y2="1206" stroke="#f1ece3" stroke-width="1"/>
<text x="644.00" y="1228" text-anchor="middle" font-family="Segoe UI, Arial, sans-serif" font-size="12" fill="#64748b">10,000</text>
<line x1="912.00" y1="906" x2="912.00" y2="1206" stroke="#f1ece3" stroke-width="1"/>
<text x="912.00" y="1228" text-anchor="middle" font-family="Segoe UI, Arial, sans-serif" font-size="12" fill="#64748b">15,000</text>
<line x1="1180.00" y1="906" x2="1180.00" y2="1206" stroke="#f1ece3" stroke-width="1"/>
<text x="1180.00" y="1228" text-anchor="middle" font-family="Segoe UI, Arial, sans-serif" font-size="12" fill="#64748b">20,000</text>
<text x="36" y="1056.00" transform="rotate(-90 36 1056.00)" font-family="Segoe UI, Arial, sans-serif" font-size="13" fill="#475569">Relative error</text>
<text x="644.00" y="1254" text-anchor="middle" font-family="Segoe UI, Arial, sans-serif" font-size="13" fill="#475569">Number of paths</text>
<polyline fill="none" stroke="#1d4ed8" stroke-width="3" stroke-linecap="round" stroke-linejoin="round" points="121.40,945.13 134.80,1090.61 161.60,1097.47 215.20,1143.20 268.80,1196.32 376.00,1199.81 536.80,1205.37 751.20,1203.81 965.60,1200.34 1180.00,1200.61"/>
<circle cx="121.40" cy="945.13" r="5.4" fill="#1d4ed8" stroke="#fffdf8" stroke-width="2"/>
<circle cx="134.80" cy="1090.61" r="5.4" fill="#1d4ed8" stroke="#fffdf8" stroke-width="2"/>
<circle cx="161.60" cy="1097.47" r="5.4" fill="#1d4ed8" stroke="#fffdf8" stroke-width="2"/>
<circle cx="215.20" cy="1143.20" r="5.4" fill="#1d4ed8" stroke="#fffdf8" stroke-width="2"/>
<circle cx="268.80" cy="1196.32" r="5.4" fill="#1d4ed8" stroke="#fffdf8" stroke-width="2"/>
<circle cx="376.00" cy="1199.81" r="5.4" fill="#1d4ed8" stroke="#fffdf8" stroke-width="2"/>
<circle cx="536.80" cy="1205.37" r="5.4" fill="#1d4ed8" stroke="#fffdf8" stroke-width="2"/>
<circle cx="751.20" cy="1203.81" r="5.4" fill="#1d4ed8" stroke="#fffdf8" stroke-width="2"/>
<circle cx="965.60" cy="1200.34" r="5.4" fill="#1d4ed8" stroke="#fffdf8" stroke-width="2"/>
<circle cx="1180.00" cy="1200.61" r="5.4" fill="#1d4ed8" stroke="#fffdf8" stroke-width="2"/>
<polyline fill="none" stroke="#d97706" stroke-width="3" stroke-linecap="round" stroke-linejoin="round" points="121.40,1191.35 134.80,1192.98 161.60,1194.88 215.20,1196.07 268.80,1196.79 376.00,1201.66 536.80,1202.37 751.20,1197.90 965.60,1202.08 1180.00,1200.14"/>
<circle cx="121.40" cy="1191.35" r="5.4" fill="#d97706" stroke="#fffdf8" stroke-width="2"/>
<circle cx="134.80" cy="1192.98" r="5.4" fill="#d97706" stroke="#fffdf8" stroke-width="2"/>
<circle cx="161.60" cy="1194.88" r="5.4" fill="#d97706" stroke="#fffdf8" stroke-width="2"/>
<circle cx="215.20" cy="1196.07" r="5.4" fill="#d97706" stroke="#fffdf8" stroke-width="2"/>
<circle cx="268.80" cy="1196.79" r="5.4" fill="#d97706" stroke="#fffdf8" stroke-width="2"/>
<circle cx="376.00" cy="1201.66" r="5.4" fill="#d97706" stroke="#fffdf8" stroke-width="2"/>
<circle cx="536.80" cy="1202.37" r="5.4" fill="#d97706" stroke="#fffdf8" stroke-width="2"/>
<circle cx="751.20" cy="1197.90" r="5.4" fill="#d97706" stroke="#fffdf8" stroke-width="2"/>
<circle cx="965.60" cy="1202.08" r="5.4" fill="#d97706" stroke="#fffdf8" stroke-width="2"/>
<circle cx="1180.00" cy="1200.14" r="5.4" fill="#d97706" stroke="#fffdf8" stroke-width="2"/>
</svg>